<?xml version="1.0" encoding="UTF-8" standalone="no"?>
<svg
   viewBox="0 0 512 512"
   version="1.1"
   id="svg4"
   sodipodi:docname="certificate-fish.svg"
   inkscape:version="1.2.2 (b0a84865, 2022-12-01)"
   xmlns:inkscape="http://www.inkscape.org/namespaces/inkscape"
   xmlns:sodipodi="http://sodipodi.sourceforge.net/DTD/sodipodi-0.dtd"
   xmlns="http://www.w3.org/2000/svg"
   xmlns:svg="http://www.w3.org/2000/svg">
  <defs
     id="defs8">
    <inkscape:path-effect
       effect="powerclip"
       id="path-effect4288"
       is_visible="true"
       lpeversion="1"
       inverse="true"
       flatten="false"
       hide_clip="false"
       message="Use fill-rule evenodd on &lt;b&gt;fill and stroke&lt;/b&gt; dialog if no flatten result after convert clip to paths." />
    <clipPath
       clipPathUnits="userSpaceOnUse"
       id="clipPath4284">
      <path
         d="m 202.26287,198.75 c 19.59756,-16.5 46.04427,-30.75 77.74032,-30.75 31.69605,0 58.14276,14.25 77.74032,30.75 19.54756,16.5 33.44583,36.2 40.49495,49.9 2.34971,4.6 2.34971,10.05 0,14.65 -7.04912,13.7 -20.94739,33.4 -40.49495,49.9 -19.59756,16.55 -46.04427,30.8 -77.74032,30.8 -31.69605,0 -58.14276,-14.25 -77.74032,-30.75 -8.09899,-6.85 -15.2481,-14.25 -21.34734,-21.55 l -44.84441,26.1 c -6.24922,3.65 -14.19823,2.65 -19.34759,-2.45 -5.14936,-5.1 -6.19923,-13 -2.59967,-19.3 L 137.021,256 114.12386,215.95 c -3.59956,-6.3 -2.49969,-14.2 2.64967,-19.3 5.14935,-5.1 13.04837,-6.1 19.34759,-2.45 l 44.84441,26.15 c 6.09924,-7.3 13.24835,-14.7 21.34734,-21.55 z M 335.99622,256 a 15.99801,16.000003 0 1 0 -31.99602,0 15.99801,16.000003 0 1 0 31.99602,0 z"
         id="path4286"
         style="display:none;fill:#ffffff;fill-opacity:1;stroke-width:0.499969" />
      <path
         id="lpe_path-effect4288"
         style="fill:#ffffff;fill-opacity:1;stroke-width:0.499969"
         class="powerclip"
         d="M -5.0408567,-5.0408567 H 517.04235 V 517.04235 H -5.0408567 Z M 202.26287,198.75 l 0.05,0.05 c -8.09899,6.85 -15.2481,14.25 -21.34734,21.55 L 136.12112,194.2 c -6.29922,-3.65 -14.19824,-2.65 -19.34759,2.45 -5.14936,5.1 -6.24923,13 -2.64967,19.3 L 137.021,256 114.12386,296.05 c -3.59956,6.3 -2.54969,14.2 2.59967,19.3 5.14936,5.1 13.09837,6.1 19.34759,2.45 l 44.84441,-26.1 c 6.09924,7.3 13.24835,14.7 21.34734,21.55 19.59756,16.5 46.04427,30.75 77.74032,30.75 31.69605,0 58.14276,-14.25 77.74032,-30.8 19.54756,-16.5 33.44583,-36.2 40.49495,-49.9 2.34971,-4.6 2.34971,-10.05 0,-14.65 -7.04912,-13.7 -20.94739,-33.4 -40.49495,-49.9 C 338.14595,182.25 311.69924,168 280.00319,168 c -31.69605,0 -58.14276,14.25 -77.74032,30.75 z M 335.99622,256 a 15.99801,16.000003 0 1 0 -31.99602,0 15.99801,16.000003 0 1 0 31.99602,0 z" />
    </clipPath>
  </defs>
  <sodipodi:namedview
     id="namedview6"
     pagecolor="#ffffff"
     bordercolor="#000000"
     borderopacity="0.25"
     inkscape:showpageshadow="2"
     inkscape:pageopacity="0.0"
     inkscape:pagecheckerboard="0"
     inkscape:deskcolor="#d1d1d1"
     showgrid="false"
     inkscape:zoom="0.93117951"
     inkscape:cx="264.71802"
     inkscape:cy="239.48121"
     inkscape:window-width="1680"
     inkscape:window-height="938"
     inkscape:window-x="0"
     inkscape:window-y="25"
     inkscape:window-maximized="1"
     inkscape:current-layer="svg4" />
  <!--! Font Awesome Free 6.5.2 by @fontawesome - https://fontawesome.com License - https://fontawesome.com/license/free (Icons: CC BY 4.0, Fonts: SIL OFL 1.1, Code: MIT License) Copyright 2024 Fonticons, Inc. -->
  <path
     d="M 211,7.3 C 205,1 196,-1.4 187.6,0.8 179.2,3 172.7,9.7 170.5,18.1 l -15.8,62.5 -62,-17.5 c -8.4,-2.4 -17.4,0 -23.5,6.1 -6.1,6.1 -8.5,15.1 -6.1,23.5 l 17.5,62 -62.5,15.9 c -8.4,2.1 -15,8.7 -17.3,17.1 -2.3,8.4 0.2,17.3 6.5,23.3 l 46.2,45 -46.2,45 c -6.3,6 -8.7,15 -6.5,23.4 2.2,8.4 8.9,14.9 17.3,17.1 l 62.5,15.8 -17.5,62 c -2.4,8.4 0,17.4 6.1,23.5 6.1,6.1 15.1,8.5 23.5,6.1 l 62,-17.5 15.8,62.5 c 2.1,8.4 8.7,15 17.1,17.3 8.4,2.3 17.3,-0.2 23.4,-6.4 l 45,-46.2 45,46.2 c 6.1,6.2 15,8.7 23.4,6.4 8.4,-2.3 14.9,-8.9 17.1,-17.3 l 15.8,-62.5 62,17.5 c 8.4,2.4 17.4,0 23.5,-6.1 6.1,-6.1 8.5,-15.1 6.1,-23.5 l -17.5,-62 62.5,-15.8 c 8.4,-2.1 15,-8.7 17.3,-17.1 C 513.5,316 511,307 504.8,301 l -46.2,-45 46.2,-45 c 6.2,-6.1 8.7,-15 6.4,-23.4 -2.3,-8.4 -8.9,-14.9 -17.3,-17.1 l -62.5,-15.8 17.5,-62 c 2.4,-8.4 0,-17.4 -6.1,-23.5 -6.1,-6.1 -15.1,-8.5 -23.5,-6.1 l -62,17.5 -15.9,-62.5 C 339.3,9.7 332.7,3.1 324.3,0.8 315.9,-1.5 307,1 301,7.3 l -45,46.2 z"
     id="path2"
     style="fill:#00b3ff;fill-opacity:1"
     clip-path="url(#clipPath4284)"
     inkscape:path-effect="#path-effect4288"
     inkscape:original-d="M211 7.3C205 1 196-1.4 187.6 .8s-14.9 8.9-17.1 17.3L154.7 80.6l-62-17.5c-8.4-2.4-17.4 0-23.5 6.1s-8.5 15.1-6.1 23.5l17.5 62L18.1 170.6c-8.4 2.1-15 8.7-17.3 17.1S1 205 7.3 211l46.2 45L7.3 301C1 307-1.4 316 .8 324.4s8.9 14.9 17.3 17.1l62.5 15.8-17.5 62c-2.4 8.4 0 17.4 6.1 23.5s15.1 8.5 23.5 6.1l62-17.5 15.8 62.5c2.1 8.4 8.7 15 17.1 17.3s17.3-.2 23.4-6.4l45-46.2 45 46.2c6.1 6.2 15 8.7 23.4 6.4s14.9-8.9 17.1-17.3l15.8-62.5 62 17.5c8.4 2.4 17.4 0 23.5-6.1s8.5-15.1 6.1-23.5l-17.5-62 62.5-15.8c8.4-2.1 15-8.7 17.3-17.1s-.2-17.4-6.4-23.4l-46.2-45 46.2-45c6.2-6.1 8.7-15 6.4-23.4s-8.9-14.9-17.3-17.1l-62.5-15.8 17.5-62c2.4-8.4 0-17.4-6.1-23.5s-15.1-8.5-23.5-6.1l-62 17.5L341.4 18.1c-2.1-8.4-8.7-15-17.1-17.3S307 1 301 7.3L256 53.5 211 7.3z" />
</svg>
